<svg xmlns="http://www.w3.org/2000/svg" width="1024" height="1024" viewBox="0 0 1024 1024"><path fill="#e6e5e5" d="M421.669 413.835c20.327-12.461 40.343-25.954 60.601-38.539 8.065-5.01 21.589-14.51 29.624-18.476 3.145 1.588 6.257 3.477 9.211 5.404 27.287 17.804 55.39 34.424 82.292 52.805-15.617 19.756-14.083 40.676-3.239 62.41-7.937-4.287-16.339-9.594-23.781-14.709-20.924-14.385-43.808-27.992-64.139-43.128-8.431 6.132-83.736 56.152-87.441 56.914 3.628-6.375 5.79-12.765 7.396-19.876.117-.914.152-2.166.209-3.114.8-10.697.194-19.893-5.783-29.484-1.355-2.174-5.386-6.958-6.079-9.017z"/><path fill="#cdcccc" d="M520.797 549.069c14.993-9.081 29.402-19.08 44.074-28.682l78.089-51.233c10.687-7.075 26.775-17.781 38.1-25.044.574-.368.672-.162 1.509.29l.301 2.237c-.589 7.116.389 46.888-1.177 49.207l-.654.401c-6.616 5.095-18.804 12.632-26.166 17.533l-55.586 36.789c-18.428 12.199-36.351 25.143-54.998 37.049-7.746 4.946-15.273 10.197-23.287 14.737-.495-17.482.065-35.664-.205-53.284"/><path fill="#e6e5e5" d="M520.797 549.069c14.993-9.081 29.402-19.08 44.074-28.682l78.089-51.233c10.687-7.075 26.775-17.781 38.1-25.044.574-.368.672-.162 1.509.29l.301 2.237c-.878.083-2.116.162-2.889.681-30.886 20.733-62.25 41.111-93.375 61.472-20.71 13.549-41.289 29.372-62.953 41.165-.662 5.372-.654 43.046.484 46.898.153-.044 3.278-1.597 3.926-1.898 5.661-2.628 12.065-7.789 17.195-11.153l99.658-66.406c11.084-7.369 22.19-14.927 33.628-21.721.477-.283 2.036.363 2.495.57-6.616 5.095-18.804 12.632-26.166 17.533l-55.586 36.789c-18.428 12.199-36.351 25.143-54.998 37.049-7.746 4.946-15.273 10.197-23.287 14.737-.495-17.482.065-35.664-.205-53.284"/><path fill="#cdcccc" d="M341.43 478.743c-.431-3.492-.829-33.384.272-34.504l1.604.561c4.767 3.4 10.872 6.961 15.938 10.202l28.733 18.57c1.787 1.151 12.872 8.201 13.7 9.096 7.484 4.439 14.595 9.465 21.883 14.199 2.626 1.706 6.993 4.86 9.64 6.247l.335.5c1.032.604 1.907 1.12 2.975 1.673 5.946 4.209 17.268 10.937 22.199 14.837 1.689.948 11.114 6.884 11.972 7.99 11.066 6.815 21.864 14.32 32.957 21.239.271 11.504-.03 23.069.044 34.567.025 3.925-.181 14.013.514 17.64l-1.123.281c-12.858-6.864-34.435-22.396-47.433-30.91l-114.377-76.1c-.314-4.616.019-11.323.167-16.088"/><path fill="#e6e5e5" d="M341.43 478.743c.441-4.357-.335-10.138.445-13.97.745 3.127-.351 6.558.402 8.379 1.652-2.805-.166-4.796 1.091-6.14 1.008 8.932-.02 18.259.469 26.954 3.135 2.336 6.27 3.998 9.385 6.169 15.999 11.148 33.011 21.453 49.088 32.353l66.271 44.217c5.685 3.775 26.39 17.998 31.333 20.138l.833-.183c1.221-4.222.866-39.847.465-46.172-4.212-2.767-29.685-19.376-30.531-22.374 11.066 6.815 21.864 14.32 32.957 21.239.271 11.504-.03 23.069.044 34.567.025 3.925-.181 14.013.514 17.64l-1.123.281c-12.858-6.864-34.435-22.396-47.433-30.91l-114.377-76.1c-.314-4.616.019-11.323.167-16.088"/><path fill="#e6e5e5" d="M433.535 503.614c1.032.604 1.907 1.12 2.975 1.673 5.946 4.209 17.268 10.937 22.199 14.837-.952.1-2.896.3-3.722-.042-8.099-3.356-18.959-11.167-25.91-16.279 2.218.42 2.444.582 4.458-.189"/><path fill="#e6e5e5" d="M401.677 482.668c7.484 4.439 14.595 9.465 21.883 14.199 2.626 1.706 6.993 4.86 9.64 6.247l.335.5c-2.014.771-2.24.609-4.458.189-2.136-1.498-8.378-5.701-9.633-7.458-2.829-3.959-16.481-10.82-17.767-13.677"/><path fill="#e6e5e5" d="m681.981 514.956.343.309c2.319 6.934-4.344 30.82-7.581 38.226a90.4 90.4 0 0 1-21.657 30.097c-11.979 11.14-26.771 20.145-40.379 29.282l-48.88 33.054-26.462 17.656c-3.743 2.478-12.347 8.393-16.063 9.867l-.418-.872-.315-51.643c7.986-5.921 19.979-13.291 28.632-19.017l56.928-37.55 44.302-29.277c10.247-6.784 20.908-14.047 31.55-20.132"/><path fill="#cdcccc" d="m677.842 519.867 1.929.279.49.662c-.129 10.801-2.953 20.104-6.762 30.097-10.289 26.991-34.515 41.116-57.283 56.513l-50.018 33.766-24.119 16.166c-4.907 3.289-12.141 8.468-17.313 10.688l-.798.734c-1.648-4.189-.849-39.512-.767-46.847 16.871-11.809 36.372-23.994 53.75-35.245l60.008-39.494c12.717-8.379 28.97-18.461 40.883-27.319"/><path fill="#e6e5e5" d="M340.941 514.217c16.075 9.14 34.451 22.321 50.064 32.772l62.462 41.004 32.937 21.738c3.912 2.565 14.307 9.034 17.149 11.765l-.09 52.71c-23.903-14.221-47.67-31.436-70.836-47.045-46.788-31.526-89.062-48.997-91.686-112.944"/><path fill="#cdcccc" d="M347.806 527.45c7.274-1.17 11.404 6.3 16.777 9.637 14.072 8.739 29.601 13.778 42.624 24.154 2.195 2.056 10.215 5.648 11.991 7.744 8.439 9.959 19.938 15.47 30.687 22.646 3.822 2.551 8.618 4.909 12.779 7.579 10.421 6.686 21.97 18.336 33.008 23.553 4.718 10.902 3.712 27.18 1.664 38.655-1.383 1.377-.601 1.093-2.307 1.163l-27.449-16.215c-3.463-2.001-8.244-4.097-11.379-6.159-14.625-9.618-29.029-19.623-43.585-29.334-17.965-11.986-35.472-22.544-49.605-39.411-9.023-10.77-13.757-21.916-17.284-35.392-.522-1.992-1.455-5.372-1.268-7.238 1.463-1.335 1.103-.925 3.347-1.382"/><path fill="#cdcccc" d="M612.719 421.941c4.738-10.504 29.492-25.324 39.527-32.047 9.011-6.037 21.182-14.35 30.659-19.429-.583 12.445-.212 25.24-.184 37.704.009 3.624.596 14.287.035 17.292l-.831.66c-4.137 3.501-17.492 11.739-22.695 15.122-13.816 8.983-30.238 21.021-44.677 28.428-7.626-15.598-11.645-31.88-1.834-47.73"/><path fill="#e6e5e5" d="M612.719 421.941c-.059 3.965-4.962 12.765-3.97 15.681 1.754-2.187 3.664-13.848 5.899-14.57.255 1.095-2.417 6.512-3.022 8.331-4.048 12.185-1.651 24.24 4.036 35.421l30.645-19.961c6.188-4.109 28.929-19.657 33.965-21.252.711.179 1.033.186 1.653.53-4.137 3.501-17.492 11.739-22.695 15.122-13.816 8.983-30.238 21.021-44.677 28.428-7.626-15.598-11.645-31.88-1.834-47.73"/><path fill="#e6e5e5" d="M340.92 370.204c16.181 10.34 32.584 20.721 48.37 31.643 5.102 3.531 9.683 8.079 14.653 11.739 16.204 18.911 15.553 34.776 4.026 56.1-13.422-9.284-28.244-18.048-41.882-27.126-8.438-5.616-16.722-11.329-25.057-17.092q-.026-8.073-.131-16.146.252-19.559.021-39.118"/><path fill="#e6e5e5" d="M482.68 499.018a29.716 29.716 0 1 1 27.275 27.049c-14.48-1.138-26.016-12.578-27.275-27.049"/></svg>